<?xml version="1.0" encoding="UTF-8" standalone="no"?>
<!DOCTYPE svg PUBLIC "-//W3C//DTD SVG 1.1//EN"
 "http://www.w3.org/Graphics/SVG/1.1/DTD/svg11.dtd">
<!-- Generated by graphviz version 2.43.0 (0)
 -->
<!-- Title: sockshop_map Pages: 1 -->
<svg width="724pt" height="305pt"
 viewBox="0.00 0.00 723.89 305.00" xmlns="http://www.w3.org/2000/svg" xmlns:xlink="http://www.w3.org/1999/xlink">
<g id="graph0" class="graph" transform="scale(1 1) rotate(0) translate(4 301)">
<title>sockshop_map</title>
<polygon fill="white" stroke="transparent" points="-4,4 -4,-301 719.89,-301 719.89,4 -4,4"/>
<!-- service_orders_db -->
<g id="node1" class="node">
<title>service_orders_db</title>
<ellipse fill="none" stroke="black" cx="151.15" cy="-105" rx="55.79" ry="18"/>
<text text-anchor="middle" x="151.15" y="-101.3" font-family="Times,serif" font-size="14.00">orders&#45;db</text>
</g>
<!-- service_user -->
<g id="node2" class="node">
<title>service_user</title>
<ellipse fill="none" stroke="black" cx="46.15" cy="-105" rx="31.4" ry="18"/>
<text text-anchor="middle" x="46.15" y="-101.3" font-family="Times,serif" font-size="14.00">user</text>
</g>
<!-- service_user_db -->
<g id="node3" class="node">
<title>service_user_db</title>
<ellipse fill="none" stroke="black" cx="46.15" cy="-18" rx="46.29" ry="18"/>
<text text-anchor="middle" x="46.15" y="-14.3" font-family="Times,serif" font-size="14.00">user&#45;db</text>
</g>
<!-- service_user&#45;&gt;service_user_db -->
<g id="edge11" class="edge">
<title>service_user&#45;&gt;service_user_db</title>
<path fill="none" stroke="black" stroke-dasharray="5,2" d="M46.15,-86.8C46.15,-75.16 46.15,-59.55 46.15,-46.24"/>
<polygon fill="black" stroke="black" points="49.65,-46.18 46.15,-36.18 42.65,-46.18 49.65,-46.18"/>
<text text-anchor="middle" x="57.65" y="-57.8" font-family="Times,serif" font-size="14.00">tcp</text>
</g>
<!-- service_queue_master -->
<g id="node4" class="node">
<title>service_queue_master</title>
<ellipse fill="none" stroke="black" cx="540.15" cy="-105" rx="74.99" ry="18"/>
<text text-anchor="middle" x="540.15" y="-101.3" font-family="Times,serif" font-size="14.00">queue&#45;master</text>
</g>
<!-- service_rabbitmq -->
<g id="node5" class="node">
<title>service_rabbitmq</title>
<ellipse fill="none" stroke="black" cx="408.15" cy="-18" rx="53.89" ry="18"/>
<text text-anchor="middle" x="408.15" y="-14.3" font-family="Times,serif" font-size="14.00">rabbitmq</text>
</g>
<!-- service_queue_master&#45;&gt;service_rabbitmq -->
<g id="edge9" class="edge">
<title>service_queue_master&#45;&gt;service_rabbitmq</title>
<path fill="none" stroke="black" stroke-dasharray="5,2" d="M515.32,-88.01C494.13,-74.37 463.51,-54.65 440.42,-39.78"/>
<polygon fill="black" stroke="black" points="442.28,-36.82 431.97,-34.34 438.49,-42.7 442.28,-36.82"/>
<text text-anchor="middle" x="519.15" y="-57.8" font-family="Times,serif" font-size="14.00">exchanges</text>
</g>
<!-- service_catalogue -->
<g id="node6" class="node">
<title>service_catalogue</title>
<ellipse fill="none" stroke="black" cx="161.15" cy="-192" rx="55.79" ry="18"/>
<text text-anchor="middle" x="161.15" y="-188.3" font-family="Times,serif" font-size="14.00">catalogue</text>
</g>
<!-- service_orders -->
<g id="node7" class="node">
<title>service_orders</title>
<ellipse fill="none" stroke="black" cx="276.15" cy="-192" rx="40.89" ry="18"/>
<text text-anchor="middle" x="276.15" y="-188.3" font-family="Times,serif" font-size="14.00">orders</text>
</g>
<!-- service_orders&#45;&gt;service_orders_db -->
<g id="edge10" class="edge">
<title>service_orders&#45;&gt;service_orders_db</title>
<path fill="none" stroke="black" stroke-dasharray="5,2" d="M254.94,-176.58C235.05,-163.06 205.07,-142.67 182.43,-127.27"/>
<polygon fill="black" stroke="black" points="184.39,-124.37 174.15,-121.64 180.45,-130.16 184.39,-124.37"/>
<text text-anchor="middle" x="231.65" y="-144.8" font-family="Times,serif" font-size="14.00">tcp</text>
</g>
<!-- service_orders&#45;&gt;service_user -->
<g id="edge1" class="edge">
<title>service_orders&#45;&gt;service_user</title>
<path fill="none" stroke="black" stroke-dasharray="5,2" d="M244.67,-180.36C206.81,-167.43 141.45,-144.63 86.15,-123 84.09,-122.2 81.98,-121.35 79.86,-120.49"/>
<polygon fill="black" stroke="black" points="81.17,-117.25 70.59,-116.66 78.49,-123.71 81.17,-117.25"/>
<text text-anchor="middle" x="186.65" y="-144.8" font-family="Times,serif" font-size="14.00">tcp</text>
</g>
<!-- service_payment -->
<g id="node9" class="node">
<title>service_payment</title>
<ellipse fill="none" stroke="black" cx="396.15" cy="-105" rx="51.19" ry="18"/>
<text text-anchor="middle" x="396.15" y="-101.3" font-family="Times,serif" font-size="14.00">payment</text>
</g>
<!-- service_orders&#45;&gt;service_payment -->
<g id="edge8" class="edge">
<title>service_orders&#45;&gt;service_payment</title>
<path fill="none" stroke="black" stroke-dasharray="5,2" d="M296.77,-176.39C315.82,-162.89 344.35,-142.69 365.96,-127.38"/>
<polygon fill="black" stroke="black" points="368.03,-130.21 374.16,-121.57 363.98,-124.5 368.03,-130.21"/>
<text text-anchor="middle" x="354.65" y="-144.8" font-family="Times,serif" font-size="14.00">tcp</text>
</g>
<!-- service_carts -->
<g id="node11" class="node">
<title>service_carts</title>
<ellipse fill="none" stroke="black" cx="667.15" cy="-105" rx="34.39" ry="18"/>
<text text-anchor="middle" x="667.15" y="-101.3" font-family="Times,serif" font-size="14.00">carts</text>
</g>
<!-- service_orders&#45;&gt;service_carts -->
<g id="edge4" class="edge">
<title>service_orders&#45;&gt;service_carts</title>
<path fill="none" stroke="black" stroke-dasharray="5,2" d="M314.8,-185.82C379.62,-176.6 513.96,-155.25 624.15,-123 626.73,-122.24 629.37,-121.39 632.02,-120.49"/>
<polygon fill="black" stroke="black" points="633.3,-123.75 641.49,-117.03 630.9,-117.17 633.3,-123.75"/>
<text text-anchor="middle" x="559.65" y="-144.8" font-family="Times,serif" font-size="14.00">tcp</text>
</g>
<!-- service_shipping -->
<g id="node12" class="node">
<title>service_shipping</title>
<ellipse fill="none" stroke="black" cx="276.15" cy="-105" rx="50.89" ry="18"/>
<text text-anchor="middle" x="276.15" y="-101.3" font-family="Times,serif" font-size="14.00">shipping</text>
</g>
<!-- service_orders&#45;&gt;service_shipping -->
<g id="edge7" class="edge">
<title>service_orders&#45;&gt;service_shipping</title>
<path fill="none" stroke="black" stroke-dasharray="5,2" d="M276.15,-173.8C276.15,-162.16 276.15,-146.55 276.15,-133.24"/>
<polygon fill="black" stroke="black" points="279.65,-133.18 276.15,-123.18 272.65,-133.18 279.65,-133.18"/>
<text text-anchor="middle" x="287.65" y="-144.8" font-family="Times,serif" font-size="14.00">tcp</text>
</g>
<!-- service_front_end -->
<g id="node8" class="node">
<title>service_front_end</title>
<ellipse fill="none" stroke="black" cx="184.15" cy="-279" rx="53.89" ry="18"/>
<text text-anchor="middle" x="184.15" y="-275.3" font-family="Times,serif" font-size="14.00">front&#45;end</text>
</g>
<!-- service_front_end&#45;&gt;service_catalogue -->
<g id="edge6" class="edge">
<title>service_front_end&#45;&gt;service_catalogue</title>
<path fill="none" stroke="black" stroke-dasharray="5,2" d="M179.49,-260.8C176.31,-249.05 172.03,-233.24 168.41,-219.84"/>
<polygon fill="black" stroke="black" points="171.78,-218.91 165.79,-210.18 165.03,-220.74 171.78,-218.91"/>
<text text-anchor="middle" x="185.65" y="-231.8" font-family="Times,serif" font-size="14.00">tcp</text>
</g>
<!-- service_front_end&#45;&gt;service_orders -->
<g id="edge3" class="edge">
<title>service_front_end&#45;&gt;service_orders</title>
<path fill="none" stroke="black" stroke-dasharray="5,2" d="M201.88,-261.61C216.02,-248.55 235.98,-230.11 251.65,-215.64"/>
<polygon fill="black" stroke="black" points="254.42,-217.84 259.39,-208.48 249.67,-212.69 254.42,-217.84"/>
<text text-anchor="middle" x="246.65" y="-231.8" font-family="Times,serif" font-size="14.00">tcp</text>
</g>
<!-- service_carts_db -->
<g id="node10" class="node">
<title>service_carts_db</title>
<ellipse fill="none" stroke="black" cx="667.15" cy="-18" rx="48.99" ry="18"/>
<text text-anchor="middle" x="667.15" y="-14.3" font-family="Times,serif" font-size="14.00">carts&#45;db</text>
</g>
<!-- service_carts&#45;&gt;service_carts_db -->
<g id="edge2" class="edge">
<title>service_carts&#45;&gt;service_carts_db</title>
<path fill="none" stroke="black" stroke-dasharray="5,2" d="M667.15,-86.8C667.15,-75.16 667.15,-59.55 667.15,-46.24"/>
<polygon fill="black" stroke="black" points="670.65,-46.18 667.15,-36.18 663.65,-46.18 670.65,-46.18"/>
<text text-anchor="middle" x="678.65" y="-57.8" font-family="Times,serif" font-size="14.00">tcp</text>
</g>
<!-- service_shipping&#45;&gt;service_rabbitmq -->
<g id="edge5" class="edge">
<title>service_shipping&#45;&gt;service_rabbitmq</title>
<path fill="none" stroke="black" stroke-dasharray="5,2" d="M299.44,-89C320.57,-75.39 351.94,-55.19 375.56,-39.98"/>
<polygon fill="black" stroke="black" points="377.68,-42.78 384.19,-34.42 373.89,-36.9 377.68,-42.78"/>
<text text-anchor="middle" x="387.15" y="-57.8" font-family="Times,serif" font-size="14.00">exchanges</text>
</g>
</g>
</svg>
