<?xml version="1.0" encoding="UTF-8" standalone="no"?>
<!DOCTYPE svg PUBLIC "-//W3C//DTD SVG 1.1//EN"
 "http://www.w3.org/Graphics/SVG/1.1/DTD/svg11.dtd">
<!-- Generated by graphviz version 2.43.0 (0)
 -->
<!-- Title: sockshop_map Pages: 1 -->
<svg width="903pt" height="327pt"
 viewBox="0.00 0.00 902.75 327.00" xmlns="http://www.w3.org/2000/svg" xmlns:xlink="http://www.w3.org/1999/xlink">
<g id="graph0" class="graph" transform="scale(1 1) rotate(0) translate(4 323)">
<title>sockshop_map</title>
<polygon fill="white" stroke="transparent" points="-4,4 -4,-323 898.75,-323 898.75,4 -4,4"/>
<!-- route_GET_/health -->
<g id="node1" class="node">
<title>route_GET_/health</title>
<polygon fill="none" stroke="black" points="0,-0.5 0,-46.5 66,-46.5 66,-0.5 0,-0.5"/>
<text text-anchor="middle" x="33" y="-31.3" font-family="Times,serif" font-size="14.00">/health</text>
<polyline fill="none" stroke="black" points="0,-23.5 66,-23.5 "/>
<text text-anchor="middle" x="33" y="-8.3" font-family="Times,serif" font-size="14.00">GET</text>
</g>
<!-- route_GET_/orders -->
<g id="node2" class="node">
<title>route_GET_/orders</title>
<polygon fill="none" stroke="black" points="172.5,-98.5 172.5,-144.5 275.5,-144.5 275.5,-98.5 172.5,-98.5"/>
<text text-anchor="middle" x="224" y="-129.3" font-family="Times,serif" font-size="14.00">/orders</text>
<polyline fill="none" stroke="black" points="172.5,-121.5 275.5,-121.5 "/>
<text text-anchor="middle" x="196" y="-106.3" font-family="Times,serif" font-size="14.00">GET</text>
<polyline fill="none" stroke="black" points="219.5,-98.5 219.5,-121.5 "/>
<text text-anchor="middle" x="247.5" y="-106.3" font-family="Times,serif" font-size="14.00">POST</text>
</g>
<!-- route_POST_/shipping -->
<g id="node3" class="node">
<title>route_POST_/shipping</title>
<polygon fill="none" stroke="black" points="247.5,-0.5 247.5,-46.5 330.5,-46.5 330.5,-0.5 247.5,-0.5"/>
<text text-anchor="middle" x="289" y="-31.3" font-family="Times,serif" font-size="14.00">/shipping</text>
<polyline fill="none" stroke="black" points="247.5,-23.5 330.5,-23.5 "/>
<text text-anchor="middle" x="289" y="-8.3" font-family="Times,serif" font-size="14.00">POST</text>
</g>
<!-- route_GET_/orders&#45;&gt;route_POST_/shipping -->
<g id="edge12" class="edge">
<title>route_GET_/orders&#45;&gt;route_POST_/shipping</title>
<path fill="none" stroke="black" stroke-dasharray="5,2" d="M239.08,-98.23C247.77,-85.39 258.83,-69.06 268.33,-55.03"/>
<polygon fill="black" stroke="black" points="271.3,-56.89 274.01,-46.64 265.5,-52.96 271.3,-56.89"/>
<text text-anchor="middle" x="277.5" y="-68.8" font-family="Times,serif" font-size="14.00">calls</text>
</g>
<!-- route_POST_/paymentAuth -->
<g id="node4" class="node">
<title>route_POST_/paymentAuth</title>
<polygon fill="none" stroke="black" points="105.5,-0.5 105.5,-46.5 222.5,-46.5 222.5,-0.5 105.5,-0.5"/>
<text text-anchor="middle" x="164" y="-31.3" font-family="Times,serif" font-size="14.00">/paymentAuth</text>
<polyline fill="none" stroke="black" points="105.5,-23.5 222.5,-23.5 "/>
<text text-anchor="middle" x="164" y="-8.3" font-family="Times,serif" font-size="14.00">POST</text>
</g>
<!-- route_GET_/orders&#45;&gt;route_POST_/paymentAuth -->
<g id="edge2" class="edge">
<title>route_GET_/orders&#45;&gt;route_POST_/paymentAuth</title>
<path fill="none" stroke="black" stroke-dasharray="5,2" d="M208.26,-98.44C204.17,-92.51 199.84,-86.07 196,-80 191.03,-72.15 185.9,-63.51 181.24,-55.43"/>
<polygon fill="black" stroke="black" points="184.21,-53.57 176.21,-46.63 178.13,-57.04 184.21,-53.57"/>
<text text-anchor="middle" x="212.5" y="-68.8" font-family="Times,serif" font-size="14.00">calls</text>
</g>
<!-- service_user_db -->
<g id="node5" class="node">
<title>service_user_db</title>
<ellipse fill="none" stroke="black" cx="733" cy="-23.5" rx="46.29" ry="18"/>
<text text-anchor="middle" x="733" y="-19.8" font-family="Times,serif" font-size="14.00">user&#45;db</text>
</g>
<!-- service_queue_master -->
<g id="node6" class="node">
<title>service_queue_master</title>
<ellipse fill="none" stroke="black" cx="487" cy="-121.5" rx="74.99" ry="18"/>
<text text-anchor="middle" x="487" y="-117.8" font-family="Times,serif" font-size="14.00">queue&#45;master</text>
</g>
<!-- service_rabbitmq -->
<g id="node7" class="node">
<title>service_rabbitmq</title>
<ellipse fill="none" stroke="black" cx="405" cy="-23.5" rx="53.89" ry="18"/>
<text text-anchor="middle" x="405" y="-19.8" font-family="Times,serif" font-size="14.00">rabbitmq</text>
</g>
<!-- service_queue_master&#45;&gt;service_rabbitmq -->
<g id="edge16" class="edge">
<title>service_queue_master&#45;&gt;service_rabbitmq</title>
<path fill="none" stroke="black" stroke-dasharray="5,2" d="M480.84,-103.52C476.06,-91.87 468.63,-76.5 459,-65 453.1,-57.96 445.76,-51.44 438.41,-45.77"/>
<polygon fill="black" stroke="black" points="440,-42.6 429.85,-39.54 435.87,-48.26 440,-42.6"/>
<text text-anchor="middle" x="506" y="-68.8" font-family="Times,serif" font-size="14.00">exchanges</text>
</g>
<!-- service_orders_db -->
<g id="node8" class="node">
<title>service_orders_db</title>
<ellipse fill="none" stroke="black" cx="636" cy="-121.5" rx="55.79" ry="18"/>
<text text-anchor="middle" x="636" y="-117.8" font-family="Times,serif" font-size="14.00">orders&#45;db</text>
</g>
<!-- service_user -->
<g id="node9" class="node">
<title>service_user</title>
<ellipse fill="none" stroke="black" cx="741" cy="-121.5" rx="31.4" ry="18"/>
<text text-anchor="middle" x="741" y="-117.8" font-family="Times,serif" font-size="14.00">user</text>
</g>
<!-- service_user&#45;&gt;service_user_db -->
<g id="edge11" class="edge">
<title>service_user&#45;&gt;service_user_db</title>
<path fill="none" stroke="black" stroke-dasharray="5,2" d="M739.57,-103.34C738.38,-89 736.65,-68.31 735.27,-51.72"/>
<polygon fill="black" stroke="black" points="738.74,-51.19 734.42,-41.51 731.76,-51.77 738.74,-51.19"/>
<text text-anchor="middle" x="748.5" y="-68.8" font-family="Times,serif" font-size="14.00">tcp</text>
</g>
<!-- service_catalogue -->
<g id="node10" class="node">
<title>service_catalogue</title>
<ellipse fill="none" stroke="black" cx="501" cy="-214" rx="55.79" ry="18"/>
<text text-anchor="middle" x="501" y="-210.3" font-family="Times,serif" font-size="14.00">catalogue</text>
</g>
<!-- service_orders -->
<g id="node11" class="node">
<title>service_orders</title>
<ellipse fill="none" stroke="black" cx="386" cy="-214" rx="40.89" ry="18"/>
<text text-anchor="middle" x="386" y="-210.3" font-family="Times,serif" font-size="14.00">orders</text>
</g>
<!-- service_orders&#45;&gt;route_GET_/orders -->
<g id="edge1" class="edge">
<title>service_orders&#45;&gt;route_GET_/orders</title>
<path fill="none" stroke="black" stroke-dasharray="5,2" d="M345.88,-209.87C303.29,-205.62 240.06,-196.35 225,-178 219.7,-171.54 217.87,-163.09 217.78,-154.73"/>
<polygon fill="black" stroke="black" points="221.27,-154.93 218.4,-144.73 214.29,-154.49 221.27,-154.93"/>
<text text-anchor="middle" x="254" y="-166.8" font-family="Times,serif" font-size="14.00">exposes</text>
</g>
<!-- service_orders&#45;&gt;route_GET_/orders -->
<g id="edge6" class="edge">
<title>service_orders&#45;&gt;route_GET_/orders</title>
<path fill="none" stroke="black" stroke-dasharray="5,2" d="M354.71,-202.3C338.47,-196.18 318.61,-187.77 302,-178 292.73,-172.55 291.66,-169.38 283,-163 277.42,-158.89 271.47,-154.65 265.58,-150.53"/>
<polygon fill="black" stroke="black" points="267.25,-147.43 257.04,-144.61 263.27,-153.18 267.25,-147.43"/>
<text text-anchor="middle" x="331" y="-166.8" font-family="Times,serif" font-size="14.00">exposes</text>
</g>
<!-- service_orders&#45;&gt;service_orders_db -->
<g id="edge17" class="edge">
<title>service_orders&#45;&gt;service_orders_db</title>
<path fill="none" stroke="black" stroke-dasharray="5,2" d="M416.65,-201.9C460.17,-186.15 540.16,-157.19 590.58,-138.94"/>
<polygon fill="black" stroke="black" points="592.04,-142.14 600.25,-135.44 589.65,-135.56 592.04,-142.14"/>
<text text-anchor="middle" x="529.5" y="-166.8" font-family="Times,serif" font-size="14.00">tcp</text>
</g>
<!-- service_orders&#45;&gt;service_user -->
<g id="edge18" class="edge">
<title>service_orders&#45;&gt;service_user</title>
<path fill="none" stroke="black" stroke-dasharray="5,2" d="M416.44,-201.77C422.84,-199.65 429.6,-197.61 436,-196 483.63,-184.06 496.75,-187.08 545,-178 614.64,-164.89 634.69,-169.99 701,-145 704.56,-143.66 708.19,-142.03 711.74,-140.27"/>
<polygon fill="black" stroke="black" points="713.65,-143.22 720.82,-135.42 710.35,-137.05 713.65,-143.22"/>
<text text-anchor="middle" x="651.5" y="-166.8" font-family="Times,serif" font-size="14.00">tcp</text>
</g>
<!-- service_payment -->
<g id="node13" class="node">
<title>service_payment</title>
<ellipse fill="none" stroke="black" cx="103" cy="-121.5" rx="51.19" ry="18"/>
<text text-anchor="middle" x="103" y="-117.8" font-family="Times,serif" font-size="14.00">payment</text>
</g>
<!-- service_orders&#45;&gt;service_payment -->
<g id="edge15" class="edge">
<title>service_orders&#45;&gt;service_payment</title>
<path fill="none" stroke="black" stroke-dasharray="5,2" d="M345.8,-210.2C305.71,-206.39 242.93,-197.64 192,-178 170.3,-169.63 148.1,-155.8 131.29,-144.03"/>
<polygon fill="black" stroke="black" points="133.2,-141.09 123.03,-138.11 129.12,-146.78 133.2,-141.09"/>
<text text-anchor="middle" x="203.5" y="-166.8" font-family="Times,serif" font-size="14.00">tcp</text>
</g>
<!-- service_carts -->
<g id="node15" class="node">
<title>service_carts</title>
<ellipse fill="none" stroke="black" cx="839" cy="-121.5" rx="34.39" ry="18"/>
<text text-anchor="middle" x="839" y="-117.8" font-family="Times,serif" font-size="14.00">carts</text>
</g>
<!-- service_orders&#45;&gt;service_carts -->
<g id="edge8" class="edge">
<title>service_orders&#45;&gt;service_carts</title>
<path fill="none" stroke="black" stroke-dasharray="5,2" d="M415.8,-201.51C422.37,-199.36 429.35,-197.37 436,-196 536.87,-175.26 565.68,-196.41 667,-178 718.9,-168.57 731.03,-161.89 781,-145 788.18,-142.58 795.77,-139.79 803.02,-137.02"/>
<polygon fill="black" stroke="black" points="804.56,-140.18 812.62,-133.3 802.03,-133.66 804.56,-140.18"/>
<text text-anchor="middle" x="739.5" y="-166.8" font-family="Times,serif" font-size="14.00">tcp</text>
</g>
<!-- service_shipping -->
<g id="node16" class="node">
<title>service_shipping</title>
<ellipse fill="none" stroke="black" cx="344" cy="-121.5" rx="50.89" ry="18"/>
<text text-anchor="middle" x="344" y="-117.8" font-family="Times,serif" font-size="14.00">shipping</text>
</g>
<!-- service_orders&#45;&gt;service_shipping -->
<g id="edge14" class="edge">
<title>service_orders&#45;&gt;service_shipping</title>
<path fill="none" stroke="black" stroke-dasharray="5,2" d="M378.85,-196.25C374.63,-186.5 369.13,-174 364,-163 361.78,-158.24 359.35,-153.19 356.97,-148.34"/>
<polygon fill="black" stroke="black" points="360.11,-146.78 352.54,-139.37 353.83,-149.88 360.11,-146.78"/>
<text text-anchor="middle" x="382.5" y="-166.8" font-family="Times,serif" font-size="14.00">tcp</text>
</g>
<!-- service_front_end -->
<g id="node12" class="node">
<title>service_front_end</title>
<ellipse fill="none" stroke="black" cx="444" cy="-301" rx="53.89" ry="18"/>
<text text-anchor="middle" x="444" y="-297.3" font-family="Times,serif" font-size="14.00">front&#45;end</text>
</g>
<!-- service_front_end&#45;&gt;service_catalogue -->
<g id="edge13" class="edge">
<title>service_front_end&#45;&gt;service_catalogue</title>
<path fill="none" stroke="black" stroke-dasharray="5,2" d="M455.26,-283.21C463.46,-270.98 474.7,-254.21 483.99,-240.36"/>
<polygon fill="black" stroke="black" points="487.1,-242.01 489.76,-231.76 481.29,-238.11 487.1,-242.01"/>
<text text-anchor="middle" x="486.5" y="-253.8" font-family="Times,serif" font-size="14.00">tcp</text>
</g>
<!-- service_front_end&#45;&gt;service_orders -->
<g id="edge5" class="edge">
<title>service_front_end&#45;&gt;service_orders</title>
<path fill="none" stroke="black" stroke-dasharray="5,2" d="M432.54,-283.21C424.15,-270.9 412.61,-254 403.12,-240.09"/>
<polygon fill="black" stroke="black" points="405.77,-237.76 397.24,-231.47 399.98,-241.7 405.77,-237.76"/>
<text text-anchor="middle" x="430.5" y="-253.8" font-family="Times,serif" font-size="14.00">tcp</text>
</g>
<!-- service_payment&#45;&gt;route_GET_/health -->
<g id="edge4" class="edge">
<title>service_payment&#45;&gt;route_GET_/health</title>
<path fill="none" stroke="black" stroke-dasharray="5,2" d="M81.43,-104.86C73,-97.96 63.76,-89.3 57,-80 51.77,-72.8 47.36,-64.28 43.82,-56.1"/>
<polygon fill="black" stroke="black" points="47.04,-54.73 40.05,-46.76 40.55,-57.34 47.04,-54.73"/>
<text text-anchor="middle" x="86" y="-68.8" font-family="Times,serif" font-size="14.00">exposes</text>
</g>
<!-- service_payment&#45;&gt;route_POST_/paymentAuth -->
<g id="edge7" class="edge">
<title>service_payment&#45;&gt;route_POST_/paymentAuth</title>
<path fill="none" stroke="black" stroke-dasharray="5,2" d="M108.35,-103.2C112.3,-91.84 118.31,-76.92 126,-65 128.29,-61.45 130.92,-57.92 133.69,-54.52"/>
<polygon fill="black" stroke="black" points="136.44,-56.69 140.35,-46.85 131.15,-52.11 136.44,-56.69"/>
<text text-anchor="middle" x="155" y="-68.8" font-family="Times,serif" font-size="14.00">exposes</text>
</g>
<!-- service_carts_db -->
<g id="node14" class="node">
<title>service_carts_db</title>
<ellipse fill="none" stroke="black" cx="846" cy="-23.5" rx="48.99" ry="18"/>
<text text-anchor="middle" x="846" y="-19.8" font-family="Times,serif" font-size="14.00">carts&#45;db</text>
</g>
<!-- service_carts&#45;&gt;service_carts_db -->
<g id="edge3" class="edge">
<title>service_carts&#45;&gt;service_carts_db</title>
<path fill="none" stroke="black" stroke-dasharray="5,2" d="M840.25,-103.34C841.3,-89 842.81,-68.31 844.02,-51.72"/>
<polygon fill="black" stroke="black" points="847.52,-51.74 844.76,-41.51 840.54,-51.23 847.52,-51.74"/>
<text text-anchor="middle" x="853.5" y="-68.8" font-family="Times,serif" font-size="14.00">tcp</text>
</g>
<!-- service_shipping&#45;&gt;route_POST_/shipping -->
<g id="edge9" class="edge">
<title>service_shipping&#45;&gt;route_POST_/shipping</title>
<path fill="none" stroke="black" stroke-dasharray="5,2" d="M326.95,-104.34C320.33,-97.35 313.12,-88.78 308,-80 303.78,-72.76 300.31,-64.45 297.54,-56.49"/>
<polygon fill="black" stroke="black" points="300.79,-55.17 294.41,-46.72 294.13,-57.31 300.79,-55.17"/>
<text text-anchor="middle" x="337" y="-68.8" font-family="Times,serif" font-size="14.00">exposes</text>
</g>
<!-- service_shipping&#45;&gt;service_rabbitmq -->
<g id="edge10" class="edge">
<title>service_shipping&#45;&gt;service_rabbitmq</title>
<path fill="none" stroke="black" stroke-dasharray="5,2" d="M354.63,-103.78C364.01,-89 377.85,-67.22 388.65,-50.23"/>
<polygon fill="black" stroke="black" points="391.88,-51.67 394.29,-41.35 385.97,-47.92 391.88,-51.67"/>
<text text-anchor="middle" x="417" y="-68.8" font-family="Times,serif" font-size="14.00">exchanges</text>
</g>
</g>
</svg>
