<?xml version="1.0" encoding="UTF-8" standalone="no"?>
<!DOCTYPE svg PUBLIC "-//W3C//DTD SVG 1.1//EN"
 "http://www.w3.org/Graphics/SVG/1.1/DTD/svg11.dtd">
<!-- Generated by graphviz version 2.43.0 (0)
 -->
<!-- Title: sockshop_map Pages: 1 -->
<svg width="907pt" height="327pt"
 viewBox="0.00 0.00 906.65 327.00" xmlns="http://www.w3.org/2000/svg" xmlns:xlink="http://www.w3.org/1999/xlink">
<g id="graph0" class="graph" transform="scale(1 1) rotate(0) translate(4 323)">
<title>sockshop_map</title>
<polygon fill="white" stroke="transparent" points="-4,4 -4,-323 902.65,-323 902.65,4 -4,4"/>
<!-- route_GET_/health -->
<g id="node1" class="node">
<title>route_GET_/health</title>
<polygon fill="none" stroke="black" points="697.15,-0.5 697.15,-46.5 763.15,-46.5 763.15,-0.5 697.15,-0.5"/>
<text text-anchor="middle" x="730.15" y="-31.3" font-family="Times,serif" font-size="14.00">/health</text>
<polyline fill="none" stroke="black" points="697.15,-23.5 763.15,-23.5 "/>
<text text-anchor="middle" x="730.15" y="-8.3" font-family="Times,serif" font-size="14.00">GET</text>
</g>
<!-- route_POST_/paymentAuth -->
<g id="node2" class="node">
<title>route_POST_/paymentAuth</title>
<polygon fill="none" stroke="black" points="781.65,-0.5 781.65,-46.5 898.65,-46.5 898.65,-0.5 781.65,-0.5"/>
<text text-anchor="middle" x="840.15" y="-31.3" font-family="Times,serif" font-size="14.00">/paymentAuth</text>
<polyline fill="none" stroke="black" points="781.65,-23.5 898.65,-23.5 "/>
<text text-anchor="middle" x="840.15" y="-8.3" font-family="Times,serif" font-size="14.00">POST</text>
</g>
<!-- route_GET_/orders -->
<g id="node3" class="node">
<title>route_GET_/orders</title>
<polygon fill="none" stroke="black" points="95.65,-98.5 95.65,-144.5 198.65,-144.5 198.65,-98.5 95.65,-98.5"/>
<text text-anchor="middle" x="147.15" y="-129.3" font-family="Times,serif" font-size="14.00">/orders</text>
<polyline fill="none" stroke="black" points="95.65,-121.5 198.65,-121.5 "/>
<text text-anchor="middle" x="119.15" y="-106.3" font-family="Times,serif" font-size="14.00">GET</text>
<polyline fill="none" stroke="black" points="142.65,-98.5 142.65,-121.5 "/>
<text text-anchor="middle" x="170.65" y="-106.3" font-family="Times,serif" font-size="14.00">POST</text>
</g>
<!-- service_orders_db -->
<g id="node4" class="node">
<title>service_orders_db</title>
<ellipse fill="none" stroke="black" cx="272.15" cy="-121.5" rx="55.79" ry="18"/>
<text text-anchor="middle" x="272.15" y="-117.8" font-family="Times,serif" font-size="14.00">orders&#45;db</text>
</g>
<!-- service_user -->
<g id="node5" class="node">
<title>service_user</title>
<ellipse fill="none" stroke="black" cx="46.15" cy="-121.5" rx="31.4" ry="18"/>
<text text-anchor="middle" x="46.15" y="-117.8" font-family="Times,serif" font-size="14.00">user</text>
</g>
<!-- service_user_db -->
<g id="node14" class="node">
<title>service_user_db</title>
<ellipse fill="none" stroke="black" cx="46.15" cy="-23.5" rx="46.29" ry="18"/>
<text text-anchor="middle" x="46.15" y="-19.8" font-family="Times,serif" font-size="14.00">user&#45;db</text>
</g>
<!-- service_user&#45;&gt;service_user_db -->
<g id="edge9" class="edge">
<title>service_user&#45;&gt;service_user_db</title>
<path fill="none" stroke="black" stroke-dasharray="5,2" d="M46.15,-103.34C46.15,-89 46.15,-68.31 46.15,-51.72"/>
<polygon fill="black" stroke="black" points="49.65,-51.51 46.15,-41.51 42.65,-51.51 49.65,-51.51"/>
<text text-anchor="middle" x="57.65" y="-68.8" font-family="Times,serif" font-size="14.00">tcp</text>
</g>
<!-- service_queue_master -->
<g id="node6" class="node">
<title>service_queue_master</title>
<ellipse fill="none" stroke="black" cx="507.15" cy="-121.5" rx="74.99" ry="18"/>
<text text-anchor="middle" x="507.15" y="-117.8" font-family="Times,serif" font-size="14.00">queue&#45;master</text>
</g>
<!-- service_rabbitmq -->
<g id="node7" class="node">
<title>service_rabbitmq</title>
<ellipse fill="none" stroke="black" cx="566.15" cy="-23.5" rx="53.89" ry="18"/>
<text text-anchor="middle" x="566.15" y="-19.8" font-family="Times,serif" font-size="14.00">rabbitmq</text>
</g>
<!-- service_queue_master&#45;&gt;service_rabbitmq -->
<g id="edge13" class="edge">
<title>service_queue_master&#45;&gt;service_rabbitmq</title>
<path fill="none" stroke="black" stroke-dasharray="5,2" d="M512.6,-103.27C516.59,-91.93 522.61,-77.02 530.15,-65 533.69,-59.35 538.03,-53.72 542.45,-48.54"/>
<polygon fill="black" stroke="black" points="545.3,-50.61 549.37,-40.82 540.09,-45.93 545.3,-50.61"/>
<text text-anchor="middle" x="568.15" y="-68.8" font-family="Times,serif" font-size="14.00">exchanges</text>
</g>
<!-- service_carts -->
<g id="node8" class="node">
<title>service_carts</title>
<ellipse fill="none" stroke="black" cx="380.15" cy="-121.5" rx="34.39" ry="18"/>
<text text-anchor="middle" x="380.15" y="-117.8" font-family="Times,serif" font-size="14.00">carts</text>
</g>
<!-- service_carts_db -->
<g id="node13" class="node">
<title>service_carts_db</title>
<ellipse fill="none" stroke="black" cx="380.15" cy="-23.5" rx="48.99" ry="18"/>
<text text-anchor="middle" x="380.15" y="-19.8" font-family="Times,serif" font-size="14.00">carts&#45;db</text>
</g>
<!-- service_carts&#45;&gt;service_carts_db -->
<g id="edge2" class="edge">
<title>service_carts&#45;&gt;service_carts_db</title>
<path fill="none" stroke="black" stroke-dasharray="5,2" d="M380.15,-103.34C380.15,-89 380.15,-68.31 380.15,-51.72"/>
<polygon fill="black" stroke="black" points="383.65,-51.51 380.15,-41.51 376.65,-51.51 383.65,-51.51"/>
<text text-anchor="middle" x="391.65" y="-68.8" font-family="Times,serif" font-size="14.00">tcp</text>
</g>
<!-- service_catalogue -->
<g id="node9" class="node">
<title>service_catalogue</title>
<ellipse fill="none" stroke="black" cx="172.15" cy="-214" rx="55.79" ry="18"/>
<text text-anchor="middle" x="172.15" y="-210.3" font-family="Times,serif" font-size="14.00">catalogue</text>
</g>
<!-- service_orders -->
<g id="node10" class="node">
<title>service_orders</title>
<ellipse fill="none" stroke="black" cx="287.15" cy="-214" rx="40.89" ry="18"/>
<text text-anchor="middle" x="287.15" y="-210.3" font-family="Times,serif" font-size="14.00">orders</text>
</g>
<!-- service_orders&#45;&gt;route_GET_/orders -->
<g id="edge1" class="edge">
<title>service_orders&#45;&gt;route_GET_/orders</title>
<path fill="none" stroke="black" stroke-dasharray="5,2" d="M259.17,-200.64C246.06,-194.45 230.44,-186.47 217.15,-178 204.62,-170.02 191.67,-160.25 180.37,-151.14"/>
<polygon fill="black" stroke="black" points="182.41,-148.29 172.46,-144.66 177.97,-153.7 182.41,-148.29"/>
<text text-anchor="middle" x="246.15" y="-166.8" font-family="Times,serif" font-size="14.00">exposes</text>
</g>
<!-- service_orders&#45;&gt;route_GET_/orders -->
<g id="edge5" class="edge">
<title>service_orders&#45;&gt;route_GET_/orders</title>
<path fill="none" stroke="black" stroke-dasharray="5,2" d="M256.7,-201.82C250.29,-199.7 243.54,-197.64 237.15,-196 214.85,-190.28 149.94,-195.63 135.15,-178 129.59,-171.38 129.25,-162.78 131.2,-154.34"/>
<polygon fill="black" stroke="black" points="134.59,-155.22 134.37,-144.63 127.94,-153.05 134.59,-155.22"/>
<text text-anchor="middle" x="164.15" y="-166.8" font-family="Times,serif" font-size="14.00">exposes</text>
</g>
<!-- service_orders&#45;&gt;service_orders_db -->
<g id="edge14" class="edge">
<title>service_orders&#45;&gt;service_orders_db</title>
<path fill="none" stroke="black" stroke-dasharray="5,2" d="M284.32,-195.98C282.18,-183.04 279.19,-164.98 276.7,-150"/>
<polygon fill="black" stroke="black" points="280.09,-149.05 275.01,-139.75 273.19,-150.19 280.09,-149.05"/>
<text text-anchor="middle" x="291.65" y="-166.8" font-family="Times,serif" font-size="14.00">tcp</text>
</g>
<!-- service_orders&#45;&gt;service_user -->
<g id="edge15" class="edge">
<title>service_orders&#45;&gt;service_user</title>
<path fill="none" stroke="black" stroke-dasharray="5,2" d="M257.01,-201.7C250.53,-199.57 243.66,-197.53 237.15,-196 178.65,-182.26 157.18,-204.29 103.15,-178 88.01,-170.64 74.37,-157.7 64.22,-146.18"/>
<polygon fill="black" stroke="black" points="66.9,-143.92 57.79,-138.5 61.53,-148.41 66.9,-143.92"/>
<text text-anchor="middle" x="114.65" y="-166.8" font-family="Times,serif" font-size="14.00">tcp</text>
</g>
<!-- service_orders&#45;&gt;service_carts -->
<g id="edge7" class="edge">
<title>service_orders&#45;&gt;service_carts</title>
<path fill="none" stroke="black" stroke-dasharray="5,2" d="M303.35,-197.24C318.24,-182.74 340.48,-161.1 357.19,-144.83"/>
<polygon fill="black" stroke="black" points="359.72,-147.26 364.44,-137.78 354.83,-142.25 359.72,-147.26"/>
<text text-anchor="middle" x="347.65" y="-166.8" font-family="Times,serif" font-size="14.00">tcp</text>
</g>
<!-- service_payment -->
<g id="node12" class="node">
<title>service_payment</title>
<ellipse fill="none" stroke="black" cx="770.15" cy="-121.5" rx="51.19" ry="18"/>
<text text-anchor="middle" x="770.15" y="-117.8" font-family="Times,serif" font-size="14.00">payment</text>
</g>
<!-- service_orders&#45;&gt;service_payment -->
<g id="edge12" class="edge">
<title>service_orders&#45;&gt;service_payment</title>
<path fill="none" stroke="black" stroke-dasharray="5,2" d="M327.23,-209.86C403.19,-203.19 572.81,-184.84 710.15,-145 716.18,-143.25 722.46,-141.18 728.6,-139.01"/>
<polygon fill="black" stroke="black" points="729.87,-142.28 738.07,-135.56 727.47,-135.7 729.87,-142.28"/>
<text text-anchor="middle" x="641.65" y="-166.8" font-family="Times,serif" font-size="14.00">tcp</text>
</g>
<!-- service_shipping -->
<g id="node15" class="node">
<title>service_shipping</title>
<ellipse fill="none" stroke="black" cx="650.15" cy="-121.5" rx="50.89" ry="18"/>
<text text-anchor="middle" x="650.15" y="-117.8" font-family="Times,serif" font-size="14.00">shipping</text>
</g>
<!-- service_orders&#45;&gt;service_shipping -->
<g id="edge11" class="edge">
<title>service_orders&#45;&gt;service_shipping</title>
<path fill="none" stroke="black" stroke-dasharray="5,2" d="M324.56,-206.43C382.38,-195.88 496.63,-173.43 591.15,-145 596.86,-143.28 602.82,-141.27 608.65,-139.18"/>
<polygon fill="black" stroke="black" points="610.12,-142.37 618.28,-135.61 607.69,-135.8 610.12,-142.37"/>
<text text-anchor="middle" x="536.65" y="-166.8" font-family="Times,serif" font-size="14.00">tcp</text>
</g>
<!-- service_front_end -->
<g id="node11" class="node">
<title>service_front_end</title>
<ellipse fill="none" stroke="black" cx="195.15" cy="-301" rx="53.89" ry="18"/>
<text text-anchor="middle" x="195.15" y="-297.3" font-family="Times,serif" font-size="14.00">front&#45;end</text>
</g>
<!-- service_front_end&#45;&gt;service_catalogue -->
<g id="edge10" class="edge">
<title>service_front_end&#45;&gt;service_catalogue</title>
<path fill="none" stroke="black" stroke-dasharray="5,2" d="M190.49,-282.8C187.31,-271.05 183.03,-255.24 179.41,-241.84"/>
<polygon fill="black" stroke="black" points="182.78,-240.91 176.79,-232.18 176.03,-242.74 182.78,-240.91"/>
<text text-anchor="middle" x="196.65" y="-253.8" font-family="Times,serif" font-size="14.00">tcp</text>
</g>
<!-- service_front_end&#45;&gt;service_orders -->
<g id="edge4" class="edge">
<title>service_front_end&#45;&gt;service_orders</title>
<path fill="none" stroke="black" stroke-dasharray="5,2" d="M212.88,-283.61C227.02,-270.55 246.98,-252.11 262.65,-237.64"/>
<polygon fill="black" stroke="black" points="265.42,-239.84 270.39,-230.48 260.67,-234.69 265.42,-239.84"/>
<text text-anchor="middle" x="257.65" y="-253.8" font-family="Times,serif" font-size="14.00">tcp</text>
</g>
<!-- service_payment&#45;&gt;route_GET_/health -->
<g id="edge3" class="edge">
<title>service_payment&#45;&gt;route_GET_/health</title>
<path fill="none" stroke="black" stroke-dasharray="5,2" d="M762.99,-103.34C757.52,-90.21 749.83,-71.74 743.26,-55.97"/>
<polygon fill="black" stroke="black" points="746.42,-54.47 739.35,-46.58 739.96,-57.16 746.42,-54.47"/>
<text text-anchor="middle" x="781.15" y="-68.8" font-family="Times,serif" font-size="14.00">exposes</text>
</g>
<!-- service_payment&#45;&gt;route_POST_/paymentAuth -->
<g id="edge6" class="edge">
<title>service_payment&#45;&gt;route_POST_/paymentAuth</title>
<path fill="none" stroke="black" stroke-dasharray="5,2" d="M790.61,-104.61C798.65,-97.67 807.52,-89.04 814.15,-80 819.48,-72.72 824.13,-64.17 827.97,-56"/>
<polygon fill="black" stroke="black" points="831.25,-57.23 832.1,-46.67 824.85,-54.4 831.25,-57.23"/>
<text text-anchor="middle" x="851.15" y="-68.8" font-family="Times,serif" font-size="14.00">exposes</text>
</g>
<!-- service_shipping&#45;&gt;service_rabbitmq -->
<g id="edge8" class="edge">
<title>service_shipping&#45;&gt;service_rabbitmq</title>
<path fill="none" stroke="black" stroke-dasharray="5,2" d="M637.51,-103.6C628.96,-92.4 617.23,-77.52 606.15,-65 601.1,-59.3 595.47,-53.37 590.07,-47.86"/>
<polygon fill="black" stroke="black" points="592.44,-45.28 582.91,-40.66 587.48,-50.22 592.44,-45.28"/>
<text text-anchor="middle" x="656.15" y="-68.8" font-family="Times,serif" font-size="14.00">exchanges</text>
</g>
</g>
</svg>
